<svg width="142" height="28" viewBox="0 0 142 28" fill="none" xmlns="http://www.w3.org/2000/svg">
<path d="M5.5 21.5368V6.46321H17.6206V8.77443H8.08625V12.5139H13.8812V14.8203H8.08625V21.5368H5.5ZM28.6556 6C33.4131 6 37.196 9.55609 37.196 13.9662C37.196 18.4439 33.4083 22 28.6556 22C23.9029 22 20.1828 18.4439 20.1828 13.9662C20.1828 9.55609 23.9029 6 28.6556 6ZM28.6556 19.6936C31.9125 19.6936 34.4747 17.1074 34.4747 13.9662C34.4747 10.8492 31.9125 8.31122 28.6556 8.31122C25.4228 8.31122 22.9041 10.8492 22.9041 13.9662C22.9089 17.1074 25.4276 19.6936 28.6556 19.6936ZM55.0489 6.46321V16.1809C55.0489 19.8963 52.1876 22 48.3516 22C44.5446 22 41.6785 19.9011 41.6785 16.1809V6.46321H44.2648V16.1809C44.2648 18.4439 46.0645 19.6888 48.3516 19.6888C50.658 19.6888 52.4626 18.4439 52.4626 16.1809V6.46321H55.0489ZM74.4891 6.46321V21.5368H72.2021L63.4976 11.0808H63.4735V21.5368H60.8872V7.41858L60.4385 6.46321H63.1743L71.8788 16.924H71.9029V6.46321H74.4891ZM78.7111 6.46321H93.1429V8.77443H87.2322V21.5368H84.646V8.7696H78.7111V6.46321ZM100.178 6.46321H103.391L110.388 21.5416H107.546L105.722 17.4789H98.5422L96.7425 21.5416H94.0404L100.516 7.50543L100.178 6.46321ZM99.4686 15.3993H104.8L102.214 9.55609H102.074L99.4686 15.3993ZM114.475 21.5368V6.46321H117.061V21.5368H114.475ZM136.805 6.46321V21.5368H134.518L125.814 11.076H125.79V21.5368H123.203V7.37998L122.755 6.45838H125.49L134.195 16.9192H134.219V6.46321H136.805Z" fill="black"/>
</svg>
